<?xml version="1.0" encoding="UTF-8" standalone="no"?>
<svg
   viewBox="0 -0.5 40 15"
   shape-rendering="crispEdges"
   version="1.1"
   id="svg468"
   sodipodi:docname="PICO-8_logo.svg"
   inkscape:version="1.2.1 (9c6d41e410, 2022-07-14)"
   xmlns:inkscape="http://www.inkscape.org/namespaces/inkscape"
   xmlns:sodipodi="http://sodipodi.sourceforge.net/DTD/sodipodi-0.dtd"
   xmlns="http://www.w3.org/2000/svg"
   xmlns:svg="http://www.w3.org/2000/svg">
  <defs
     id="defs472" />
  <sodipodi:namedview
     id="namedview470"
     pagecolor="#ffffff"
     bordercolor="#000000"
     borderopacity="0.25"
     inkscape:showpageshadow="2"
     inkscape:pageopacity="0.0"
     inkscape:pagecheckerboard="0"
     inkscape:deskcolor="#d1d1d1"
     showgrid="false"
     inkscape:zoom="10.791902"
     inkscape:cx="15.057587"
     inkscape:cy="7.8762762"
     inkscape:window-width="1366"
     inkscape:window-height="695"
     inkscape:window-x="0"
     inkscape:window-y="0"
     inkscape:window-maximized="1"
     inkscape:current-layer="svg468" />
  <metadata
     id="metadata446">Made with Pixels to Svg https://codepen.io/shshaw/pen/XbxvNj</metadata>
  <path
     stroke="#000000"
     d="M0 0h40M0 1h40M0 2h34M35 2h5M0 3h33M36 3h4M0 4h32M37 4h3M0 5h33M36 5h4M0 6h3M7 6h1M12 6h2M17 6h2M23 6h5M32 6h2M35 6h5M0 7h2M4 7h1M7 7h2M11 7h2M15 7h3M20 7h1M23 7h5M29 7h2M32 7h8M0 8h2M7 8h2M11 8h2M15 8h3M20 8h1M23 8h1M26 8h1M32 8h8M0 9h2M4 9h5M11 9h2M15 9h3M20 9h1M23 9h4M29 9h2M32 9h8M0 10h2M4 10h4M12 10h1M17 10h1M22 10h5M32 10h8M0 11h40M0 12h40M0 13h40M0 14h40"
     id="path448" />
  <path
     stroke="#ff004d"
     d="M34 2h1"
     id="path450" />
  <path
     stroke="#ffa300"
     d="M33 3h1"
     id="path452" />
  <path
     stroke="#fff1e8"
     d="M34 3h1M33 4h3M34 5h1M3 6h4M8 6h4M14 6h3M19 6h4M28 6h4M2 7h2M5 7h2M9 7h2M13 7h2M18 7h2M21 7h2M28 7h1M31 7h1M2 8h5M9 8h2M13 8h2M18 8h2M21 8h2M24 8h2M27 8h5M2 9h2M9 9h2M13 9h2M18 9h2M21 9h2M27 9h2M31 9h1M2 10h2M8 10h4M13 10h4M18 10h4M27 10h5"
     id="path454"
     style="stroke:#ffffff;stroke-opacity:1" />
  <path
     stroke="#ffccaa"
     d="M35 3h1"
     id="path456" />
  <path
     stroke="#ffff27"
     d="M32 4h1"
     id="path458" />
  <path
     stroke="#ff77a8"
     d="M36 4h1"
     id="path460" />
  <path
     stroke="#00e756"
     d="M33 5h1"
     id="path462" />
  <path
     stroke="#83769c"
     d="M35 5h1"
     id="path464" />
  <path
     stroke="#29adff"
     d="M34 6h1"
     id="path466" />
</svg>
