<?xml version="1.0" encoding="UTF-8" standalone="no"?>
<!-- Created with Inkscape (http://www.inkscape.org/) by Toomai Glittershine for SmashWiki -->
<svg id="svg2" xmlns:rdf="http://www.w3.org/1999/02/22-rdf-syntax-ns#" xmlns="http://www.w3.org/2000/svg" version="1.1" xmlns:cc="http://creativecommons.org/ns#" xmlns:dc="http://purl.org/dc/elements/1.1/"
		height="256" width="256"
		viewBox="0 0 256 256">
	<metadata id="metadata7">
		<rdf:RDF>
			<cc:Work rdf:about="">
				<dc:format>image/svg+xml</dc:format>
				<dc:type rdf:resource="http://purl.org/dc/dcmitype/StillImage"/>
				<dc:title/>
			</cc:Work>
		</rdf:RDF>
	</metadata>
	<path id="mainsymbolpath" style="opacity:0.5;fill:#000000;fill-opacity:1;stroke:none"
		d="m 59.49551,142.9333 -18.486443,12.94432 -1.439862,-2.05634 c -1.077113,-1.53827 -3.18159,-1.90934 -4.719868,-0.83224 l -0.06169,0.0432 c -1.538278,1.07712 -1.909353,3.1816 -0.83224,4.71988 l 25.269582,36.0887 c 1.077117,1.53828 3.181596,1.90936 4.719874,0.83224 l 0.06169,-0.0432 c 1.538278,-1.07711 1.909356,-3.18159 0.832239,-4.71987 l -1.439857,-2.05634 18.486478,-12.9444 c 8.827977,-6.18143 10.957032,-18.35804 4.775585,-27.18599 -6.181445,-8.82794 -18.337499,-10.97137 -27.165488,-4.78996 z m -15.723934,32.03275 -3.043379,2.131 c -1.829859,-1.08282 -4.184934,-1.08422 -6.040019,0.21472 -2.528228,1.77028 -3.159421,5.24774 -1.389136,7.77596 1.770285,2.52823 5.268295,3.14503 7.796523,1.37474 1.863265,-1.30467 2.677929,-3.53941 2.273745,-5.63728 l 3.022818,-2.1166 z M 168.94565,51.25864 c -20.72139,0 -30.32916,11.248387 -34.36632,20.333619 -9.21936,-0.527735 -18.86376,-0.999636 -19.48011,-0.753097 -1.18615,0.47446 -3.913,2.833471 -2.13378,5.798847 1.32762,2.212699 12.86672,5.152242 18.6517,6.501738 -0.44033,3.265886 -0.85573,7.137694 -1.20495,11.170939 -4.65506,-3.014244 -9.92579,-5.382235 -13.30471,-3.665072 -7.23552,3.677066 -7.47646,14.694696 -3.0877,20.032376 3.13072,3.80764 10.79403,5.08093 14.96153,5.49761 -0.0709,1.5513 -0.12552,2.77706 -0.12552,3.16301 0,2.49091 1.18916,6.77787 6.52684,6.77787 5.33768,0 6.51485,-5.93057 10.19191,-9.48902 3.67707,-3.55845 11.39549,-9.74006 18.27516,-9.74006 5.81214,0 11.37176,6.41874 11.37176,14.48457 0,8.06582 -8.29277,11.02532 -12.32569,11.97424 -4.03291,0.94892 -11.05532,1.16199 -10.9199,4.14203 0.0983,2.16229 1.55408,4.49561 19.32949,1.43089 2.76061,-0.47597 6.17571,-1.14327 9.84046,-2.10867 4.09813,41.89043 22.63223,57.28826 39.01043,56.93413 l 0,-53.34437 c -5.53649,8.08503 -20.53683,9.50969 -29.99836,-6.55195 12.32964,-5.02116 24.45055,-14.56472 24.45055,-33.71364 0,-26.806992 -15.77179,-48.87599 -45.66279,-48.87599 z m -62.73298,67.45239 c -5.79189,0 -16.543029,5.74903 -16.543029,14.91132 0,5.96257 8.190797,8.84119 14.133119,4.04162 0.18368,9.01715 2.4585,11.44701 6.25071,9.03716 16.54824,25.27368 53.24236,33.85179 72.79937,23.47152 l -6.67746,-22.11594 c -9.94996,6.54671 -10.24376,9.28819 -29.44609,9.28819 -19.91539,0 -31.70538,-8.95676 -31.70538,-17.42164 l 0,-14.05781 c 0,-2.7079 -3.01936,-7.15442 -8.81124,-7.15442 z"
	/>
</svg>