<svg role="img" viewBox="0 0 24 24" xmlns="http://www.w3.org/2000/svg"><g transform="matrix(0.04427391,0,0,0.04427391,-3.4959619,-0.39669423)"><path d="M 534.91,551.04 H 165.09 c -7.7266,0 -14,-6.2734 -14,-14 v -45.246 h -28.449 c -7.7266,0 -14,-6.2734 -14,-14 V 22.964 c 0,-7.7305 6.2695,-14 14,-14 h 454.72 c 7.7266,0 14,6.2734 14,14 v 454.83 c 0,7.7266 -6.2734,14 -14,14 h -28.559 v 45.246 c 0.10938,7.7305 -6.1602,14 -13.891,14 z m -355.82,-28 H 520.8 v -45.246 c 0,-7.7266 6.2734,-14 14,-14 h 28.559 V 36.964 h -426.72 v 426.83 h 28.559 c 7.7266,0 14,6.2734 14,14 v 45.246 z" /><path d="M 508.93,371.84 H 396.59 c -7.7266,0 -14,-6.2734 -14,-14 V 22.96 c 0,-7.7266 6.2734,-14 14,-14 h 112.22 c 7.7266,0 14,6.2734 14,14 v 334.88 c 0.11328,7.8398 -6.1602,14 -13.887,14 z m -98.336,-28 h 84.223 V 36.96 h -84.223 z" /><path d="M 328.16,423.25 H 227.25 c -7.7266,0 -14,-6.2734 -14,-14 0,-7.7266 6.2734,-14 14,-14 h 100.91 c 7.7266,0 14,6.2734 14,14 0,7.7305 -6.2734,14 -14,14 z" /><path d="M 328.16,356.72 H 227.25 c -7.7266,0 -14,-6.2734 -14,-14 0,-7.7266 6.2734,-14 14,-14 h 100.91 c 7.7266,0 14,6.2734 14,14 0,7.7305 -6.2734,14 -14,14 z" /><path d="M 328.16,290.08 H 227.25 c -7.7266,0 -14,-6.2734 -14,-14 0,-7.7266 6.2734,-14 14,-14 h 100.91 c 7.7266,0 14,6.2734 14,14 0,7.7305 -6.2734,14 -14,14 z" /><path d="M 328.16,223.44 H 227.25 c -7.7266,0 -14,-6.2734 -14,-14 0,-7.7266 6.2734,-14 14,-14 h 100.91 c 7.7266,0 14,6.2734 14,14 0,7.7266 -6.2734,14 -14,14 z" /><path d="M 328.16,156.91 H 227.25 c -7.7266,0 -14,-6.2734 -14,-14 0,-7.7266 6.2734,-14 14,-14 h 100.91 c 7.7266,0 14,6.2734 14,14 0,7.7305 -6.2734,14 -14,14 z" /><path d="M 328.16,551.04 H 227.25 c -7.7266,0 -14,-6.2734 -14,-14 l -0.004,-74.48 c 0,-7.7266 6.2734,-14 14,-14 h 100.91 c 7.7266,0 14,6.2734 14,14 v 74.48 c 0.004,7.7305 -6.2695,14 -13.996,14 z m -86.914,-28 h 72.914 v -46.48 h -72.91 z" /><path d="m 452.82,458.3 c -3.6953,0 -7.2812,-1.457 -9.8555,-4.1445 l -35.055,-35.055 c -5.4883,-5.4883 -5.4883,-14.336 0,-19.824 5.4883,-5.488 14.336,-5.4883 19.824,0 l 25.199,25.199 25.199,-25.199 c 5.4883,-5.4883 14.336,-5.4883 19.824,0 5.488,5.4883 5.4883,14.336 0,19.824 l -35.055,35.055 c -2.9141,2.6875 -6.3867,4.1445 -10.082,4.1445 z" /></g></svg>