<svg role="img" viewBox="0 0 24 24" xmlns="http://www.w3.org/2000/svg"><path d="m 21.656931,8.9271234 0.99419,0.06048 -0.0765,-0.992686 c -0.13791,-1.787367 -1.24413,-4.241164 -3.90775,-5.274537 -2.6569,-1.030847 -5.15696,-0.512732 -7.33572,1.517853 -0.0499,-0.04485 -0.0996,-0.09026 -0.1487,-0.135858 -1.3055299,-1.215845 -2.9713999,-1.885226 -4.6912399,-1.885226 -1.02435,0 -2.00924,0.233001 -2.92843,0.692106 -2.68892095,1.343862 -4.02980895,4.263462 -3.41563195,7.4379976 0.280093,1.449199 0.95825895,2.776862 2.13411195,4.177846 1.21177,1.444532 2.66915,2.597297 4.0784,3.712615 1.2607,0.996974 2.51712,1.999713 3.7733399,3.00226 l 0.27061,0.216071 c 0.35137,0.280644 0.69307,0.339455 0.9179,0.339455 0.35137,0 0.68469,-0.13232 0.99066,-0.393611 0.64786,-0.552753 1.23016,-1.041092 1.78011,-1.491984 0.20975,-0.171589 0.42638,-0.334057 0.64134,-0.49577 0.10515,-0.07891 0.20937,-0.157445 0.31303,-0.236728 l 0.54771,-0.419481 -0.2853,-0.628123 c -1.07942,-2.37509 -0.93296,-4.497958 0.44815,-6.489905 1.37533,-1.9829406 3.31048,-2.8740046 5.89973,-2.7128286 z m -7.32475,1.7251936 c -1.60651,2.317203 -1.89832,4.854327 -0.87174,7.549958 -0.15503,0.11762 -0.31192,0.239143 -0.46714,0.366254 -0.51736,0.42413 -1.06212,0.879915 -1.67348,1.399698 l -0.10515,-0.08375 c -1.2582799,-1.004213 -2.5167399,-2.008239 -3.7792999,-3.00707 -1.40254,-1.109935 -2.72761,-2.158458 -3.82604,-3.467111 -0.97855,-1.166487 -1.5378,-2.244216 -1.759864,-3.392312 -0.462107,-2.3893826 0.514414,-4.5707566 2.488434,-5.5575346 0.67611,-0.337779 1.40063,-0.509016 2.15345,-0.509016 1.27967,0 2.52589,0.504347 3.5090699,1.420185 0.17736,0.165072 0.35993,0.324752 0.54399,0.485528 l 0.88923,0.785916 0.57639,-0.627551 c 1.84953,-2.014387 3.7793,-2.551512 6.02932,-1.678457 1.47267,0.571523 2.28243,1.748825 2.62208,2.847039 -2.68258,0.112223 -4.81012,1.277257 -6.32948,3.4680636 z m 8.80076,3.247906 h -1.81771 v -1.817668 c 0,-0.478859 -0.38822,-0.867053 -0.86707,-0.867053 -0.47886,0 -0.86707,0.388213 -0.86707,0.867053 v 1.817668 h -1.8177 c -0.47887,0 -0.86707,0.388213 -0.86707,0.867052 0,0.478858 0.38822,0.867051 0.86707,0.867051 h 1.8177 v 1.81767 c 0,0.478857 0.38822,0.867051 0.86707,0.867051 0.47887,0 0.86707,-0.388213 0.86707,-0.867051 v -1.81767 h 1.81771 c 0.47887,0 0.86707,-0.388213 0.86707,-0.867051 0,-0.478858 -0.38841,-0.867052 -0.86707,-0.867052 z" style="stroke-width:0.0476433" /></svg>