<svg role="img" viewBox="0 0 24 24" xmlns="http://www.w3.org/2000/svg"><path d="M 19.936717,4.6052831 H 13.462679 L 10.04964,2.2484791 C 9.9141572,2.1672272 9.7516635,2.113 9.5891598,2.113 L 4.0632131,2.113189 C 1.8149016,2.113189 0,3.9280866 0,6.1763941 V 17.824248 c 0,2.248308 1.8149016,4.063205 4.0632131,4.063205 H 19.936787 C 22.185098,21.887453 24,20.072556 24,17.824248 l -1.9e-4,-9.1557558 c 0,-2.2483065 -1.841892,-4.0632041 -4.063213,-4.0632041 z m 2.438026,13.2189599 c 0,1.354402 -1.083425,2.437826 -2.437826,2.437826 l -15.8735839,1.94e-4 c -1.354411,0 -2.4378358,-1.083425 -2.4378358,-2.437827 V 6.1765821 c 0,-1.354401 1.0834248,-2.4378258 2.4378358,-2.4378258 h 5.2550804 l 3.4130385,2.35661 c 0.135473,0.081252 0.297977,0.1354791 0.46047,0.1354791 h 6.717824 c 1.354411,0 2.437836,1.0834248 2.437836,2.4378258 l 1.9e-4,9.1557558 z" style="stroke-width:0.0483715" /></svg>