<svg role="img" viewBox="0 0 24 24" xmlns="http://www.w3.org/2000/svg"><path d="M 11.400856,1.2229227 C 10.836968,4.119908 10.174079,10.977083 10.469683,16.655875 10.635325,19.838893 11.085772,22.61482 12.000052,24 12.914505,22.614731 13.364977,19.838849 13.530407,16.655875 13.825824,10.977083 13.163122,4.1197747 12.599247,1.2229227 12.357924,0.77787467 12.160627,0.367808 12.000052,0 11.839463,0.36762533 11.642153,0.77770533 11.400856,1.2229227 Z m 2.978616,2.7115226 c 0.415127,3.488336 0.733171,8.4740937 0.508741,12.7908667 -0.144416,2.772764 -0.522634,5.293079 -1.255645,7.031012 0.461087,-0.214173 0.88004,-0.456885 1.259472,-0.725861 1.864773,-1.320686 2.815788,-3.293476 3.171032,-5.470792 0.365552,-2.24368 0.104,-4.706939 -0.448685,-6.921891 C 17.037631,8.3260893 16.152219,6.3061307 15.33482,5.0921613 14.987708,4.6970467 14.670184,4.3106253 14.379472,3.934668 Z m 3.819496,3.9741294 c 0.274911,0.75352 0.525621,1.56218 0.735637,2.4039333 0.591528,2.369637 0.868532,5.020943 0.469927,7.465273 -0.349699,2.145559 -1.216657,4.129306 -2.836668,5.635143 2.412475,-0.988911 4.989392,-3.009893 5.55416,-7.142361 l -0.001,-3.56e-4 c 0.001,-0.012 0.524381,-3.867102 -3.921976,-8.3614083 z M 7.4322793,23.412345 C 5.8122958,21.906687 4.9453233,19.922939 4.5955984,17.777203 4.1969925,15.332916 4.473997,12.681879 5.0655384,10.311929 5.2755414,9.4702213 5.526265,8.661516 5.8011757,7.907996 c -4.4463709,4.49404 -3.9235501,8.348939 -3.92199,8.361409 l -0.001,3.56e-4 c 0.5647682,4.132602 3.1418188,6.153584 5.5541603,7.142362 z M 8.665137,5.0918947 C 7.8476052,6.3055973 6.9623792,8.325688 6.3855841,10.637513 c -0.5527547,2.214952 -0.8142517,4.678434 -0.4486997,6.921891 0.3552717,2.177404 1.3062721,4.150195 3.1710324,5.470792 0.3794589,0.268979 0.7984382,0.512027 1.2596452,0.725861 C 9.6343911,22.018303 9.2559723,19.497987 9.1117434,16.725044 8.8873002,12.408361 9.2053448,7.4225147 9.6204842,3.9341787 9.3297601,4.3101547 9.012062,4.6965613 8.665137,5.091672 Z" /></svg>