<svg role="img" viewBox="0 0 24 24" xmlns="http://www.w3.org/2000/svg"><path d="M 0,4.500128 C 0,3.25721 1.00721,2.25 2.25013,2.25 h 19.49946 c 1.24291,0 2.25012,1.00721 2.25012,2.250128 0,1.242918 -1.00721,2.250128 -2.25012,2.250128 H 2.25013 C 1.00721,6.749884 0,5.743046 0,4.500128 Z M 21.7494,9.749982 H 2.25041 c -1.242914,0 -2.250124,1.00721 -2.250124,2.250128 0,1.242918 1.00721,2.250128 2.250124,2.250128 h 19.49946 c 1.24254,0 2.24975,-1.00721 2.24975,-2.250128 0,-1.242918 -1.00721,-2.250128 -2.25013,-2.250128 z m 0,7.500268 H 2.25041 c -1.242914,0 -2.250124,1.006877 -2.250124,2.249747 0,1.24287 1.00721,2.250128 2.250124,2.250128 H 21.74987 C 22.99279,21.750125 24,20.742915 24,19.499997 23.99981,18.257079 22.99241,17.25025 21.74949,17.25025 Z" /></svg>