<svg role="img" viewBox="0 0 24 24" xmlns="http://www.w3.org/2000/svg"><path d="M 16.882717,3.5675 H 7.1163432 C 3.1863064,3.5675 0,6.7535264 0,10.684313 c 0,3.484339 2.5059632,6.378533 5.8129574,6.990707 v 2.757037 l 4.4347836,-2.632211 h 6.635916 C 20.813684,17.799846 24,14.61345 24,10.684453 24,6.7540364 20.813214,3.56764 16.883187,3.56764 Z m -0.239314,3.6543541 c 0.689612,0 1.249837,0.5591253 1.249837,1.2498272 0,0.6909318 -0.560225,1.2509471 -1.249837,1.2509471 -0.690922,0 -1.249827,-0.5600153 -1.249827,-1.2509471 0,-0.6907519 0.558955,-1.2498272 1.249827,-1.2498272 z m -5.759319,4.2847579 c 0,0.306222 -0.248493,0.554705 -0.554705,0.554705 H 8.4342086 v 1.89517 c 0,0.306212 -0.2485035,0.554716 -0.5547054,0.554716 H 6.6776147 c -0.3062019,0 -0.5547054,-0.248504 -0.5547054,-0.554716 v -1.89517 H 4.227365 c -0.3062129,0 -0.5547104,-0.248483 -0.5547104,-0.554705 v -1.201879 c 0,-0.3062118 0.2484975,-0.5547153 0.5547104,-0.5547153 H 6.1229093 V 7.8548475 c 0,-0.306212 0.2485035,-0.5547055 0.5547054,-0.5547055 h 1.2018885 c 0.3062019,0 0.5547054,0.2484935 0.5547054,0.5547055 v 1.8951702 h 1.8951704 c 0.306212,0 0.554705,0.2485035 0.554705,0.5547153 z m 3.324783,0.649383 c -0.690362,0 -1.249827,-0.559696 -1.249827,-1.249828 0,-0.690182 0.559515,-1.2509568 1.249827,-1.2509568 0.690932,0 1.250397,0.5607748 1.250397,1.2509568 0,0.689992 -0.559505,1.249828 -1.250397,1.249828 z m 2.434446,2.433366 c -0.690922,0 -1.249827,-0.559516 -1.249827,-1.249508 0,-0.689801 0.558945,-1.249827 1.249827,-1.249827 0.689612,0 1.249837,0.560216 1.249837,1.249827 0,0.689992 -0.560225,1.249508 -1.249837,1.249508 z m 2.433366,-2.433366 c -0.689612,0 -1.249827,-0.559696 -1.249827,-1.249828 0,-0.690182 0.560215,-1.2509568 1.249827,-1.2509568 0.691822,0 1.249827,0.5607748 1.249827,1.2509568 -3.7e-4,0.689992 -0.558005,1.249828 -1.249827,1.249828 z" style="stroke-width:0.0470533" /></svg>