<svg role="img" viewBox="0 0 24 24" xmlns="http://www.w3.org/2000/svg"><path d="m 16.029001,12.001834 c 0,-0.185075 -0.0618,-0.370151 -0.21623,-0.555215 -1.17332,-1.17241 -2.37746,-2.3756147 -3.55056,-3.5478037 -0.71008,-0.709528 -1.79078,0.370151 -1.08075,1.07991 l 2.28483,2.2830607 H 0.74563238 c -0.18521999,0 -0.37043997,0.06176 -0.46303996,0.154301 C 0.09737243,11.539399 -0.02624755,11.755463 0.00476244,12.03306 0.09736243,16.25965 2.2277922,20.208688 5.9019619,22.368287 12.570491,26.34757 21.55523,22.707229 23.59356,15.148503 25.63139,7.5282013 19.734131,0.15471126 11.984411,4.5426368e-4 c -0.98812,-0.0307700037 -0.98812,1.51177503632 0,1.54257103632 4.26086,0.09254 8.1511,2.591465 9.725749,6.571353 1.54377,3.8564277 0.58669,8.3607357 -2.315659,11.2916217 -2.9331,2.93083 -7.44096,3.856428 -11.3003893,2.313856 C 4.358082,20.239043 1.8881623,16.691019 1.5485323,12.772943 H 13.373801 l -2.28483,2.283061 c -0.710079,0.709528 0.40145,1.789382 1.08075,1.07991 1.20414,-1.203206 2.40828,-2.406411 3.64318,-3.640358 0.15442,-0.123957 0.21624,-0.309032 0.21624,-0.494108 z" style="stroke-width:0.0551133" /></svg>