<svg role="img" viewBox="0 0 24 24" xmlns="http://www.w3.org/2000/svg"><path d="m 8.587321,17.17392 c 1.804926,0 3.520566,-0.56064 4.961627,-1.58688 l 1.469383,1.4688 -0.321142,0.32112 c -0.187693,0.18768 -0.187693,0.49104 0,0.67872 l 5.247727,5.24832 c 0.448831,0.44928 1.045513,0.696 1.680118,0.696 0.634604,0 1.231286,-0.2472 1.680117,-0.696 0.926465,-0.9264 0.926465,-2.43312 0,-3.36 l -5.247727,-5.24784 c -0.187693,-0.18768 -0.491074,-0.18768 -0.678768,0 l -0.323542,0.32352 -1.468903,-1.46832 c 1.027272,-1.44192 1.588911,-3.15792 1.588911,-4.96416 0,-2.29344 -0.893342,-4.45008 -2.515376,-6.072 C 13.037713,0.89328 10.880922,0 8.587321,0 6.2932405,0 4.1369295,0.89328 2.514896,2.5152 0.89286246,4.13712 -3.28e-8,6.29376 -3.28e-8,8.5872 c 0,2.29344 0.8928624928,4.45008 2.5148960328,6.07152 1.6220335,1.62192 3.7783445,2.5152 6.072425,2.5152 z m 14.039063,3.4488 c 0.551558,0.552 0.551558,1.45056 0,2.00256 -0.535238,0.53568 -1.467463,0.53472 -2.0027,0 L 15.71534,17.7168 16.033122,17.39904 c 0.0014,-0.0014 0.0029,-0.0014 0.0043,-0.0029 l 1.358015,-1.35744 c 0.0014,-0.0014 0.0024,-0.0038 0.0038,-0.0058 l 0.318742,-0.31872 z m -6.250038,-4.92432 -0.679247,0.6792 -1.394978,-1.3944 c 0.119528,-0.10704 0.242897,-0.20976 0.357145,-0.324 0.113768,-0.11376 0.215535,-0.23616 0.322103,-0.35472 z M 3.1936635,3.19392 C 4.6342443,1.75344 6.5495784,0.96 8.587321,0.96 c 2.037263,0 3.952597,0.79344 5.393178,2.23392 1.44058,1.44048 2.234076,3.35616 2.234076,5.39328 0,2.03712 -0.793496,3.95232 -2.234076,5.3928 -1.440581,1.44096 -3.355915,2.23392 -5.393178,2.23392 -2.0377426,0 -3.9530767,-0.79296 -5.3936575,-2.23392 -1.4405808,-1.44048 -2.23359633,-3.35568 -2.23359633,-5.3928 0,-2.03712 0.79301553,-3.95232 2.23359633,-5.39328 z" /><path d="m 6.4684527,7.42128 c 0.2654586,0 0.4800336,-0.21504 0.4800336,-0.48 0,-0.5016 0.2256158,-0.96912 0.6178033,-1.28208 C 7.9656775,5.34144 8.4673126,5.23056 8.9795085,5.34816 9.5646694,5.4816 10.047583,5.96448 10.181033,6.54912 10.399448,7.5072 9.814767,8.25072 9.1244786,8.48976 8.5066754,8.70432 8.1072874,9.24624 8.1072874,9.8712 v 1.04112 c 0,0.26496 0.2145751,0.48 0.4800336,0.48 0.2654586,0 0.4800336,-0.21504 0.4800336,-0.48 V 9.8712 c 0,-0.20976 0.1459303,-0.396 0.371546,-0.47424 C 10.694669,8.96208 11.415679,7.64592 11.116618,6.33552 10.899643,5.38416 10.14455,4.62912 9.1931234,4.41216 c -0.7901353,-0.18 -1.6028321,0 -2.2254357,0.4968 -0.6226036,0.49632 -0.9797486,1.23744 -0.9797486,2.0328 4.8e-4,0.26496 0.215055,0.47952 0.4805136,0.47952 z" /><path d="m 8.9262248,12.01296 c -0.1104078,-0.1104 -0.2784195,-0.1632 -0.4320303,-0.1344 -0.033122,0.0096 -0.062404,0.0192 -0.090726,0.0288 -0.029282,0.0144 -0.057604,0.0288 -0.081606,0.0432 -0.029282,0.0192 -0.052804,0.0384 -0.072005,0.0624 -0.048003,0.0432 -0.081606,0.096 -0.1056074,0.1536 -0.024482,0.0624 -0.038403,0.12 -0.038403,0.1872 0,0.1248 0.052324,0.2496 0.1440101,0.336 0.086406,0.0912 0.2112148,0.1392 0.3360235,0.1392 0.1296091,0 0.2496175,-0.048 0.3408239,-0.1392 0.024002,-0.0192 0.043203,-0.0432 0.057604,-0.072 0.019201,-0.024 0.033122,-0.0528 0.048003,-0.0816 0.010081,-0.0288 0.019201,-0.0624 0.024002,-0.0912 0.010081,-0.0288 0.010081,-0.0624 0.010081,-0.0912 0,-0.0672 -0.010081,-0.1248 -0.033602,-0.1872 -0.024962,-0.0576 -0.063364,-0.1104 -0.1065678,-0.1536 z" /></svg>